<svg xmlns="http://www.w3.org/2000/svg" width="27" height="27" viewBox="0 0 27 27" fill="none"><metadata><rdf:RDF xmlns:rdf="http://www.w3.org/1999/02/22-rdf-syntax-ns#" xmlns:dc="http://purl.org/dc/elements/1.1/"><rdf:Description><dc:creator>RealFaviconGenerator</dc:creator><dc:source>https://realfavicongenerator.net</dc:source></rdf:Description></rdf:RDF></metadata><path d="M0.0973233 15.2579H5.96324L15.088 0.103969C14.2928 -0.0038707 8.79812 -0.655071 4.3338 3.36285C-0.821717 8.00285 0.0186033 14.7094 0.0973233 15.2579Z" fill="url(#paint0_linear_31_101)"></path><path d="M26.5026 11.3552H20.6367L11.5119 26.5091C12.3071 26.6169 17.8018 27.2681 22.2662 23.2502C27.4217 18.6102 26.5814 11.9036 26.5026 11.3552Z" fill="url(#paint1_linear_31_101)"></path><path fill-rule="evenodd" clip-rule="evenodd" d="M3.08847 22.289L3.62351 23.1363L6.67087 23.1379V22.2906L3.08847 22.289Z" fill="url(#paint2_linear_31_101)"></path><path d="M10.2257 22.2915H7.15407V23.1389H10.2257V22.2915Z" fill="url(#paint3_linear_31_101)"></path><path fill-rule="evenodd" clip-rule="evenodd" d="M11.6469 22.2934L10.7112 22.2928V23.1401L11.3675 23.1405L11.6469 22.2934Z" fill="url(#paint4_linear_31_101)"></path><path fill-rule="evenodd" clip-rule="evenodd" d="M10.7714 24.7734L6.45232 24.7718L7.15408 25.1984C8.65231 26.0067 9.88944 26.2099 10.2744 26.2569L10.7714 24.7731V24.7734Z" fill="url(#paint5_linear_31_101)"></path><path fill-rule="evenodd" clip-rule="evenodd" d="M1.28143 19.4794C1.44591 19.7667 1.62191 20.0496 1.80975 20.327L3.28911 20.328V19.4806L1.28143 19.4794Z" fill="url(#paint6_linear_31_101)"></path><path d="M6.67086 19.4816H3.7435V20.329H6.67086V19.4816Z" fill="url(#paint7_linear_31_101)"></path><path d="M10.2257 19.4838H7.15407V20.3312H10.2257V19.4838Z" fill="url(#paint8_linear_31_101)"></path><path fill-rule="evenodd" clip-rule="evenodd" d="M12.6517 19.4861L10.7112 19.4851V20.3321L12.3362 20.3331L12.6517 19.4861Z" fill="url(#paint9_linear_31_101)"></path><path fill-rule="evenodd" clip-rule="evenodd" d="M0.0472775 16.6697C0.125357 16.9545 0.213038 17.2371 0.310318 17.5171L3.2892 17.519V16.6716L0.0472775 16.6697Z" fill="url(#paint10_linear_31_101)"></path><path d="M10.2257 16.6752H7.15407V17.5226H10.2257V16.6752Z" fill="url(#paint11_linear_31_101)"></path><path fill-rule="evenodd" clip-rule="evenodd" d="M13.6334 16.6781L10.7112 16.6761V17.5235L13.3102 17.5251L13.6334 16.6781Z" fill="url(#paint12_linear_31_101)"></path><path d="M6.67086 16.673H3.7435V17.5203H6.67086V16.673Z" fill="url(#paint13_linear_31_101)"></path><path fill-rule="evenodd" clip-rule="evenodd" d="M22.9764 4.27868L22.4413 3.431L19.394 3.42972V4.27708L22.9764 4.27868Z" fill="url(#paint14_linear_31_101)"></path><path d="M18.9111 3.42844H15.8394V4.2758H18.9111V3.42844Z" fill="url(#paint15_linear_31_101)"></path><path fill-rule="evenodd" clip-rule="evenodd" d="M14.418 4.2742L15.3536 4.27484V3.42748L14.6973 3.42716L14.418 4.2742Z" fill="url(#paint16_linear_31_101)"></path><path fill-rule="evenodd" clip-rule="evenodd" d="M15.2935 1.7942L19.6125 1.7958L18.9108 1.36924C17.4125 0.56092 16.1754 0.35772 15.7904 0.31068L15.2935 1.79452V1.7942Z" fill="url(#paint17_linear_31_101)"></path><path fill-rule="evenodd" clip-rule="evenodd" d="M24.7834 7.08828C24.6189 6.80092 24.4429 6.51804 24.2551 6.2406L22.7757 6.23964V7.087L24.7834 7.08828Z" fill="url(#paint18_linear_31_101)"></path><path d="M22.3213 6.23868H19.394V7.08604H22.3213V6.23868Z" fill="url(#paint19_linear_31_101)"></path><path d="M18.9111 6.23644H15.8394V7.0838H18.9111V6.23644Z" fill="url(#paint20_linear_31_101)"></path><path fill-rule="evenodd" clip-rule="evenodd" d="M13.4132 7.08124L15.3536 7.08252V6.23548L13.729 6.2342L13.4132 7.08124Z" fill="url(#paint21_linear_31_101)"></path><path fill-rule="evenodd" clip-rule="evenodd" d="M26.018 9.89788C25.9399 9.61308 25.8522 9.33052 25.7549 9.05052L22.776 9.0486V9.89596L26.018 9.89788Z" fill="url(#paint22_linear_31_101)"></path><path d="M18.9111 9.0454H15.8394V9.89276H18.9111V9.0454Z" fill="url(#paint23_linear_31_101)"></path><path fill-rule="evenodd" clip-rule="evenodd" d="M12.4314 9.88956L15.3536 9.89116V9.04412L12.7546 9.04252L12.4314 9.88956Z" fill="url(#paint24_linear_31_101)"></path><path d="M22.3213 9.04732H19.394V9.89468H22.3213V9.04732Z" fill="url(#paint25_linear_31_101)"></path><defs>
<linearGradient id="paint0_linear_31_101" x1="7.54404" y1="15.2579" x2="7.54404" y2="0.000289197" gradientUnits="userSpaceOnUse">
<stop stop-color="#0154A4"></stop>
<stop offset="1" stop-color="#00A7EA"></stop>
</linearGradient>
<linearGradient id="paint1_linear_31_101" x1="19.0556" y1="11.3548" x2="19.0556" y2="26.6128" gradientUnits="userSpaceOnUse">
<stop stop-color="#0154A4"></stop>
<stop offset="1" stop-color="#00A7EA"></stop>
</linearGradient>
<linearGradient id="paint2_linear_31_101" x1="3.08847" y1="22.7133" x2="6.67087" y2="22.7133" gradientUnits="userSpaceOnUse">
<stop stop-color="#0154A4"></stop>
<stop offset="1" stop-color="#00A7EA"></stop>
</linearGradient>
<linearGradient id="paint3_linear_31_101" x1="7.15407" y1="22.7152" x2="10.2254" y2="22.7152" gradientUnits="userSpaceOnUse">
<stop stop-color="#0154A4"></stop>
<stop offset="1" stop-color="#00A7EA"></stop>
</linearGradient>
<linearGradient id="paint4_linear_31_101" x1="10.7112" y1="22.7165" x2="11.6469" y2="22.7165" gradientUnits="userSpaceOnUse">
<stop stop-color="#0154A4"></stop>
<stop offset="1" stop-color="#00A7EA"></stop>
</linearGradient>
<linearGradient id="paint5_linear_31_101" x1="6.452" y1="25.5145" x2="10.7714" y2="25.5145" gradientUnits="userSpaceOnUse">
<stop stop-color="#0154A4"></stop>
<stop offset="1" stop-color="#00A7EA"></stop>
</linearGradient>
<linearGradient id="paint6_linear_31_101" x1="1.28143" y1="19.9037" x2="3.28911" y2="19.9037" gradientUnits="userSpaceOnUse">
<stop stop-color="#0154A4"></stop>
<stop offset="1" stop-color="#00A7EA"></stop>
</linearGradient>
<linearGradient id="paint7_linear_31_101" x1="3.7435" y1="19.9053" x2="6.67086" y2="19.9053" gradientUnits="userSpaceOnUse">
<stop stop-color="#0154A4"></stop>
<stop offset="1" stop-color="#00A7EA"></stop>
</linearGradient>
<linearGradient id="paint8_linear_31_101" x1="7.15407" y1="19.9075" x2="10.2254" y2="19.9075" gradientUnits="userSpaceOnUse">
<stop stop-color="#0154A4"></stop>
<stop offset="1" stop-color="#00A7EA"></stop>
</linearGradient>
<linearGradient id="paint9_linear_31_101" x1="10.7112" y1="19.9091" x2="12.6517" y2="19.9091" gradientUnits="userSpaceOnUse">
<stop stop-color="#0154A4"></stop>
<stop offset="1" stop-color="#00A7EA"></stop>
</linearGradient>
<linearGradient id="paint10_linear_31_101" x1="0.0472775" y1="17.0944" x2="3.2892" y2="17.0944" gradientUnits="userSpaceOnUse">
<stop stop-color="#0154A4"></stop>
<stop offset="1" stop-color="#00A7EA"></stop>
</linearGradient>
<linearGradient id="paint11_linear_31_101" x1="7.15407" y1="17.0986" x2="10.2254" y2="17.0986" gradientUnits="userSpaceOnUse">
<stop stop-color="#0154A4"></stop>
<stop offset="1" stop-color="#00A7EA"></stop>
</linearGradient>
<linearGradient id="paint12_linear_31_101" x1="10.7112" y1="17.1008" x2="13.6334" y2="17.1008" gradientUnits="userSpaceOnUse">
<stop stop-color="#0154A4"></stop>
<stop offset="1" stop-color="#00A7EA"></stop>
</linearGradient>
<linearGradient id="paint13_linear_31_101" x1="3.7435" y1="17.0966" x2="6.67086" y2="17.0966" gradientUnits="userSpaceOnUse">
<stop stop-color="#0154A4"></stop>
<stop offset="1" stop-color="#00A7EA"></stop>
</linearGradient>
<linearGradient id="paint14_linear_31_101" x1="22.9764" y1="3.85436" x2="19.394" y2="3.85436" gradientUnits="userSpaceOnUse">
<stop stop-color="#0154A4"></stop>
<stop offset="1" stop-color="#00A7EA"></stop>
</linearGradient>
<linearGradient id="paint15_linear_31_101" x1="18.9111" y1="3.85244" x2="15.8394" y2="3.85244" gradientUnits="userSpaceOnUse">
<stop stop-color="#0154A4"></stop>
<stop offset="1" stop-color="#00A7EA"></stop>
</linearGradient>
<linearGradient id="paint16_linear_31_101" x1="15.354" y1="3.85116" x2="14.418" y2="3.85116" gradientUnits="userSpaceOnUse">
<stop stop-color="#0154A4"></stop>
<stop offset="1" stop-color="#00A7EA"></stop>
</linearGradient>
<linearGradient id="paint17_linear_31_101" x1="19.6128" y1="1.05308" x2="15.2938" y2="1.05308" gradientUnits="userSpaceOnUse">
<stop stop-color="#0154A4"></stop>
<stop offset="1" stop-color="#00A7EA"></stop>
</linearGradient>
<linearGradient id="paint18_linear_31_101" x1="24.7834" y1="6.66396" x2="22.776" y2="6.66396" gradientUnits="userSpaceOnUse">
<stop stop-color="#0154A4"></stop>
<stop offset="1" stop-color="#00A7EA"></stop>
</linearGradient>
<linearGradient id="paint19_linear_31_101" x1="22.3213" y1="6.66236" x2="19.394" y2="6.66236" gradientUnits="userSpaceOnUse">
<stop stop-color="#0154A4"></stop>
<stop offset="1" stop-color="#00A7EA"></stop>
</linearGradient>
<linearGradient id="paint20_linear_31_101" x1="18.9111" y1="6.66012" x2="15.8394" y2="6.66012" gradientUnits="userSpaceOnUse">
<stop stop-color="#0154A4"></stop>
<stop offset="1" stop-color="#00A7EA"></stop>
</linearGradient>
<linearGradient id="paint21_linear_31_101" x1="15.354" y1="6.65852" x2="13.4132" y2="6.65852" gradientUnits="userSpaceOnUse">
<stop stop-color="#0154A4"></stop>
<stop offset="1" stop-color="#00A7EA"></stop>
</linearGradient>
<linearGradient id="paint22_linear_31_101" x1="26.018" y1="9.47324" x2="22.776" y2="9.47324" gradientUnits="userSpaceOnUse">
<stop stop-color="#0154A4"></stop>
<stop offset="1" stop-color="#00A7EA"></stop>
</linearGradient>
<linearGradient id="paint23_linear_31_101" x1="18.9111" y1="9.46908" x2="15.8394" y2="9.46908" gradientUnits="userSpaceOnUse">
<stop stop-color="#0154A4"></stop>
<stop offset="1" stop-color="#00A7EA"></stop>
</linearGradient>
<linearGradient id="paint24_linear_31_101" x1="15.354" y1="9.46684" x2="12.4317" y2="9.46684" gradientUnits="userSpaceOnUse">
<stop stop-color="#0154A4"></stop>
<stop offset="1" stop-color="#00A7EA"></stop>
</linearGradient>
<linearGradient id="paint25_linear_31_101" x1="22.3213" y1="9.471" x2="19.394" y2="9.471" gradientUnits="userSpaceOnUse">
<stop stop-color="#0154A4"></stop>
<stop offset="1" stop-color="#00A7EA"></stop>
</linearGradient>
</defs></svg>