<svg width="32" height="26" viewBox="0 0 32 26" fill="none" xmlns="http://www.w3.org/2000/svg">
<path d="M7 11.5V17.5M25 8.5V14.5M23.5 1C27.1731 1 29.1597 1.56214 30.1482 1.99816C30.2798 2.05623 30.3456 2.08526 30.5356 2.26656C30.6495 2.37523 30.8573 2.69409 30.9108 2.84213C31 3.08911 31 3.22411 31 3.49411V19.6167C31 20.9799 31 21.6614 30.7956 22.0118C30.5876 22.3681 30.3871 22.5338 29.9979 22.6708C29.6153 22.8054 28.8429 22.657 27.2983 22.3602C26.2171 22.1525 24.9348 22 23.5 22C19 22 14.5 25 8.5 25C4.82694 25 2.8403 24.4379 1.85182 24.0018C1.72018 23.9438 1.65437 23.9147 1.4644 23.7334C1.35053 23.6248 1.14268 23.3059 1.0892 23.1579C1 22.9109 1 22.7759 1 22.5059L1 6.38328C1 5.02013 1 4.33855 1.20442 3.98821C1.41235 3.63185 1.61289 3.46617 2.00209 3.32922C2.3847 3.19458 3.15705 3.34297 4.70174 3.63977C5.78293 3.84751 7.06522 4 8.5 4C13 4 17.5 1 23.5 1ZM19.75 13C19.75 15.0711 18.0711 16.75 16 16.75C13.9289 16.75 12.25 15.0711 12.25 13C12.25 10.9289 13.9289 9.25 16 9.25C18.0711 9.25 19.75 10.9289 19.75 13Z" stroke="#B7D6E2" stroke-width="2" stroke-linecap="round" stroke-linejoin="round"/>
</svg>
