<svg width="32" height="20" viewBox="0 0 32 20" fill="none" xmlns="http://www.w3.org/2000/svg">
<path d="M12.25 19L18.25 10H9.25L15.25 1M31 11.5V8.5M19 19H19.3C21.8202 19 23.0804 19 24.043 18.5095C24.8897 18.0781 25.5781 17.3897 26.0095 16.543C26.5 15.5804 26.5 14.3202 26.5 11.8V7C26.5 5.60504 26.5 4.90756 26.3467 4.33531C25.9306 2.7824 24.7176 1.56944 23.1647 1.15333C22.5924 1 21.895 1 20.5 1M8.5 1H8.2C5.67976 1 4.41965 1 3.45704 1.49047C2.61031 1.9219 1.9219 2.61031 1.49047 3.45704C1 4.41965 1 5.67976 1 8.2V13C1 14.395 1 15.0924 1.15333 15.6647C1.56944 17.2176 2.7824 18.4306 4.33531 18.8467C4.90756 19 5.60504 19 7 19" stroke="#B7D6E2" stroke-width="2" stroke-linecap="round" stroke-linejoin="round"/>
</svg>
