<svg width="30" height="30" viewBox="0 0 30 30" fill="none" xmlns="http://www.w3.org/2000/svg">
<path d="M19.5 28.5V20.4C19.5 19.5599 19.5 19.1399 19.3365 18.819C19.1927 18.5368 18.9632 18.3073 18.681 18.1635C18.3601 18 17.9401 18 17.1 18H12.9C12.0599 18 11.6399 18 11.319 18.1635C11.0368 18.3073 10.8073 18.5368 10.6635 18.819C10.5 19.1399 10.5 19.5599 10.5 20.4V28.5M25.5 28.5V6.3C25.5 4.61984 25.5 3.77976 25.173 3.13803C24.8854 2.57354 24.4265 2.1146 23.862 1.82698C23.2202 1.5 22.3802 1.5 20.7 1.5H9.3C7.61984 1.5 6.77976 1.5 6.13803 1.82698C5.57354 2.1146 5.1146 2.57354 4.82698 3.13803C4.5 3.77976 4.5 4.61984 4.5 6.3V28.5M28.5 28.5H1.5M11.25 9H11.265M18.75 9H18.765M12 9C12 9.41421 11.6642 9.75 11.25 9.75C10.8358 9.75 10.5 9.41421 10.5 9C10.5 8.58579 10.8358 8.25 11.25 8.25C11.6642 8.25 12 8.58579 12 9ZM19.5 9C19.5 9.41421 19.1642 9.75 18.75 9.75C18.3358 9.75 18 9.41421 18 9C18 8.58579 18.3358 8.25 18.75 8.25C19.1642 8.25 19.5 8.58579 19.5 9Z" stroke="#B7D6E2" stroke-width="2" stroke-linecap="round" stroke-linejoin="round"/>
</svg>
