<svg width="30" height="30" viewBox="0 0 30 30" fill="none" xmlns="http://www.w3.org/2000/svg">
<path d="M22.5 10.5L14.3485 18.6515C14.0515 18.9485 13.903 19.097 13.7318 19.1526C13.5811 19.2016 13.4189 19.2016 13.2682 19.1526C13.097 19.097 12.9485 18.9485 12.6515 18.6515L9.84853 15.8485C9.55152 15.5515 9.40301 15.403 9.23176 15.3474C9.08113 15.2984 8.91887 15.2984 8.76824 15.3474C8.59699 15.403 8.44848 15.5515 8.15147 15.8485L1.5 22.5M22.5 10.5H16.5M22.5 10.5V16.5M8.7 28.5H21.3C23.8202 28.5 25.0804 28.5 26.043 28.0095C26.8897 27.5781 27.5781 26.8897 28.0095 26.043C28.5 25.0804 28.5 23.8202 28.5 21.3V8.7C28.5 6.17976 28.5 4.91965 28.0095 3.95704C27.5781 3.11031 26.8897 2.4219 26.043 1.99047C25.0804 1.5 23.8202 1.5 21.3 1.5H8.7C6.17976 1.5 4.91965 1.5 3.95704 1.99047C3.11031 2.4219 2.4219 3.11031 1.99047 3.95704C1.5 4.91965 1.5 6.17976 1.5 8.7V21.3C1.5 23.8202 1.5 25.0804 1.99047 26.043C2.4219 26.8897 3.11031 27.5781 3.95704 28.0095C4.91965 28.5 6.17976 28.5 8.7 28.5Z" stroke="#B7D6E2" stroke-width="2" stroke-linecap="round" stroke-linejoin="round"/>
</svg>
