<svg viewBox="0 0 29 26" fill="none" xmlns="http://www.w3.org/2000/svg">
<path d="M15.6667 11.6667H22.0667C23.5601 11.6667 24.3069 11.6667 24.8773 11.9573C25.3791 12.213 25.787 12.6209 26.0427 13.1227C26.3333 13.6931 26.3333 14.4399 26.3333 15.9333V25M15.6667 25V5.26667C15.6667 3.77319 15.6667 3.02646 15.376 2.45603C15.1204 1.95426 14.7124 1.54631 14.2106 1.29065C13.6402 1 12.8935 1 11.4 1H6.6C5.10653 1 4.35979 1 3.78936 1.29065C3.28759 1.54631 2.87964 1.95426 2.62398 2.45603C2.33333 3.02646 2.33333 3.77319 2.33333 5.26667V25M27.6667 25H1M7 6.33333H11M7 11.6667H11M7 17H11" stroke="#FEFEFE" stroke-width="1.5" stroke-linecap="round" stroke-linejoin="round"/>
</svg>
