<svg viewBox="0 0 26 26" fill="none" xmlns="http://www.w3.org/2000/svg">
<path d="M17 25V17.8C17 17.0533 17 16.6799 16.8547 16.3947C16.7268 16.1438 16.5229 15.9398 16.272 15.812C15.9868 15.6667 15.6134 15.6667 14.8667 15.6667H11.1333C10.3866 15.6667 10.0132 15.6667 9.72801 15.812C9.47713 15.9398 9.27316 16.1438 9.14532 16.3947C9 16.6799 9 17.0533 9 17.8V25M22.3333 25V5.26667C22.3333 3.77319 22.3333 3.02646 22.0427 2.45603C21.787 1.95426 21.3791 1.54631 20.8773 1.29065C20.3069 1 19.5601 1 18.0667 1H7.93333C6.43986 1 5.69312 1 5.12269 1.29065C4.62093 1.54631 4.21298 1.95426 3.95732 2.45603C3.66667 3.02646 3.66667 3.77319 3.66667 5.26667V25M25 25H1M9.66667 7.66667H9.68M16.3333 7.66667H16.3467M10.3333 7.66667C10.3333 8.03486 10.0349 8.33333 9.66667 8.33333C9.29848 8.33333 9 8.03486 9 7.66667C9 7.29848 9.29848 7 9.66667 7C10.0349 7 10.3333 7.29848 10.3333 7.66667ZM17 7.66667C17 8.03486 16.7015 8.33333 16.3333 8.33333C15.9651 8.33333 15.6667 8.03486 15.6667 7.66667C15.6667 7.29848 15.9651 7 16.3333 7C16.7015 7 17 7.29848 17 7.66667Z" stroke="#FEFEFE" stroke-width="1.5" stroke-linecap="round" stroke-linejoin="round"/>
</svg>
