<svg width="12" height="12" viewBox="0 0 12 12" fill="none" xmlns="http://www.w3.org/2000/svg">
<path d="M6 0C2.68632 0 0 2.68632 0 6C0 8.81376 1.93728 11.1749 4.55064 11.8234V7.8336H3.31344V6H4.55064V5.20992C4.55064 3.16776 5.47488 2.2212 7.47984 2.2212C7.86 2.2212 8.51592 2.29584 8.78424 2.37024V4.03224C8.64264 4.01736 8.39664 4.00992 8.09112 4.00992C7.10736 4.00992 6.7272 4.38264 6.7272 5.35152V6H8.68704L8.35032 7.8336H6.7272V11.9561C9.69816 11.5973 12.0002 9.06768 12.0002 6C12 2.68632 9.31368 0 6 0Z" fill="#B7D6E2"/>
</svg>
