<svg width="22" height="22" viewBox="0 0 22 22" fill="none" xmlns="http://www.w3.org/2000/svg">
<path d="M6.13515 10.189L2.3304 3.38052C1.89291 2.59765 1.67417 2.20621 1.71103 1.88573C1.7432 1.60611 1.8917 1.353 2.1201 1.18852C2.38188 1 2.83029 1 3.72711 1H5.96193C6.29523 1 6.46187 1 6.61135 1.04813C6.74362 1.09073 6.86556 1.16042 6.96939 1.25276C7.08674 1.35712 7.17132 1.5007 7.3405 1.78788L11.0001 8L14.6597 1.78788C14.8289 1.5007 14.9135 1.35712 15.0308 1.25276C15.1347 1.16042 15.2566 1.09073 15.3889 1.04813C15.5383 1 15.705 1 16.0383 1H18.2731C19.1699 1 19.6183 1 19.8801 1.18852C20.1085 1.353 20.257 1.60611 20.2892 1.88573C20.326 2.20621 20.1073 2.59765 19.6698 3.38052L15.8651 10.189M9.50011 13L11.0001 12V17M9.7501 17H12.2501M15.5963 9.9038C18.1347 12.4422 18.1347 16.5578 15.5963 19.0962C13.0579 21.6346 8.94232 21.6346 6.40391 19.0962C3.8655 16.5578 3.8655 12.4422 6.40391 9.9038C8.94231 7.3654 13.0579 7.3654 15.5963 9.9038Z" stroke="#FEFEFE" stroke-width="1.6" stroke-linecap="round" stroke-linejoin="round"/>
</svg>
