<svg width="180" height="76" viewBox="0 0 180 76" fill="none" xmlns="http://www.w3.org/2000/svg">
<path d="M1.47756 41.1185H7.77081L17.5607 24.8155C16.7076 24.6994 10.8126 23.9989 6.02301 28.3215C0.491574 33.3133 1.39345 40.5284 1.47756 41.1185Z" fill="#FEFEFE"/>
<path d="M29.5138 37.2139H23.2206L13.431 53.5169C14.2842 53.6329 20.1792 54.3335 24.9687 50.0109C30.4998 45.0191 29.5983 37.8039 29.5138 37.2139Z" fill="#FEFEFE"/>
<path fill-rule="evenodd" clip-rule="evenodd" d="M4.68716 49.0093L5.26118 49.9209L8.53054 49.9226V49.011L4.68716 49.0093Z" fill="#FEFEFE"/>
<path d="M12.344 49.0117H9.0486V49.9233H12.344V49.0117Z" fill="#FEFEFE"/>
<path fill-rule="evenodd" clip-rule="evenodd" d="M13.8691 49.0139L12.8652 49.0132V49.9248L13.5694 49.9251L13.8691 49.0139Z" fill="#FEFEFE"/>
<path fill-rule="evenodd" clip-rule="evenodd" d="M12.9297 51.6819L8.29607 51.6802L9.04895 52.1391C10.6563 53.0087 11.9836 53.2273 12.3966 53.2779L12.9297 51.6816V51.6819Z" fill="#FEFEFE"/>
<path fill-rule="evenodd" clip-rule="evenodd" d="M2.74849 45.9863C2.92495 46.2955 3.11377 46.5998 3.3153 46.8983L4.90243 46.8993V45.9877L2.74849 45.9863Z" fill="#FEFEFE"/>
<path d="M8.53056 45.9888H5.38994V46.9004H8.53056V45.9888Z" fill="#FEFEFE"/>
<path d="M12.344 45.9912H9.0486V46.9028H12.344V45.9912Z" fill="#FEFEFE"/>
<path fill-rule="evenodd" clip-rule="evenodd" d="M14.9471 45.9937L12.8652 45.9927V46.9039L14.6082 46.905L14.9471 45.9937Z" fill="#FEFEFE"/>
<path fill-rule="evenodd" clip-rule="evenodd" d="M1.42406 42.9639C1.50783 43.2703 1.60189 43.5742 1.70626 43.8755L4.90215 43.8775V42.9659L1.42406 42.9639Z" fill="#FEFEFE"/>
<path d="M12.344 42.9697H9.0486V43.8813H12.344V42.9697Z" fill="#FEFEFE"/>
<path fill-rule="evenodd" clip-rule="evenodd" d="M16.0003 42.9728L12.8652 42.9707V43.8823L15.6536 43.884L16.0003 42.9728Z" fill="#FEFEFE"/>
<path d="M8.53056 42.9673H5.38994V43.8789H8.53056V42.9673Z" fill="#FEFEFE"/>
<path fill-rule="evenodd" clip-rule="evenodd" d="M26.0237 29.3064L25.4493 28.3944L22.1803 28.3931V29.3047L26.0237 29.3064Z" fill="#FEFEFE"/>
<path d="M21.6619 28.3916H18.3665V29.3032H21.6619V28.3916Z" fill="#FEFEFE"/>
<path fill-rule="evenodd" clip-rule="evenodd" d="M16.8418 29.3019L17.8457 29.3026V28.391L17.1415 28.3906L16.8418 29.3019Z" fill="#FEFEFE"/>
<path fill-rule="evenodd" clip-rule="evenodd" d="M17.7811 26.6336L22.4148 26.6353L21.6619 26.1764C20.0545 25.3068 18.7273 25.0882 18.3143 25.0376L17.7811 26.634V26.6336Z" fill="#FEFEFE"/>
<path fill-rule="evenodd" clip-rule="evenodd" d="M27.9624 32.329C27.7859 32.0199 27.5971 31.7155 27.3956 31.417L25.8084 31.416V32.3276L27.9624 32.329Z" fill="#FEFEFE"/>
<path d="M25.3209 31.415H22.1803V32.3267H25.3209V31.415Z" fill="#FEFEFE"/>
<path d="M21.6619 31.4126H18.3665V32.3242H21.6619V31.4126Z" fill="#FEFEFE"/>
<path fill-rule="evenodd" clip-rule="evenodd" d="M15.7638 32.3214L17.8457 32.3228V31.4115L16.1023 31.4102L15.7638 32.3214Z" fill="#FEFEFE"/>
<path fill-rule="evenodd" clip-rule="evenodd" d="M29.2865 35.3517C29.2028 35.0453 29.1087 34.7413 29.0043 34.4401L25.8084 34.438V35.3496L29.2865 35.3517Z" fill="#FEFEFE"/>
<path d="M21.6619 34.4346H18.3665V35.3462H21.6619V34.4346Z" fill="#FEFEFE"/>
<path fill-rule="evenodd" clip-rule="evenodd" d="M14.7105 35.3429L17.8456 35.3446V34.4334L15.0569 34.4316L14.7105 35.3429Z" fill="#FEFEFE"/>
<path d="M25.3209 34.437H22.1803V35.3486H25.3209V34.437Z" fill="#FEFEFE"/>
<path d="M52.3278 32.1382V36.0246H49.1317V24.0664H53.9186C57.1811 24.0664 59.3838 25.428 59.3838 28.1029C59.3838 30.7778 57.1811 32.1382 53.9186 32.1382H52.329H52.3278ZM52.3278 26.5077V29.6969H54.0671C55.2765 29.6969 56.1539 29.2152 56.1539 28.1029C56.1539 26.9906 55.2596 26.5089 54.0176 26.5089H52.3278V26.5077Z" fill="#FEFEFE"/>
<path d="M71.9365 24.0664C75.2992 24.0664 77.5345 25.445 77.5345 28.1029C77.5345 29.7804 76.4579 30.9593 74.8019 31.5245L77.7832 36.0258H74.4374L71.9534 32.0063H69.9993V36.0258H66.8696V24.0676H71.9377L71.9365 24.0664ZM69.9981 26.5077V29.6969H72.1019C73.3934 29.6969 74.3215 29.2321 74.3215 28.1029C74.3215 26.9736 73.3777 26.5089 72.0524 26.5089H69.9981V26.5077Z" fill="#FEFEFE"/>
<path d="M85.4838 36.0246V24.0664H94.7257V26.5077H88.6799V28.8001H93.8314V31.1082H88.6799V33.5833H95.0239V36.0246H85.4838Z" fill="#FEFEFE"/>
<path d="M106.963 30.4776C106.582 30.1956 106.152 29.8132 105.82 29.4815C105.837 29.8967 105.837 30.3953 105.837 30.8771V36.0259H102.79V23.9019H103.154L109.713 29.3653L116.272 23.9019H116.636V36.0259H113.589V30.8771C113.589 30.3953 113.589 29.8967 113.605 29.4815C113.224 29.864 112.645 30.3784 112.181 30.7766L109.713 32.7035L106.963 30.4776Z" fill="#FEFEFE"/>
<path d="M125.264 36.0246V24.0664H128.46V36.0246H125.264Z" fill="#FEFEFE"/>
<path d="M137.106 36.0246V24.0664H146.347V26.5077H140.302V28.8001H145.453V31.1082H140.302V33.5833H146.646V36.0246H137.106Z" fill="#FEFEFE"/>
<path d="M159.481 24.0664C162.843 24.0664 165.079 25.445 165.079 28.1029C165.079 29.7804 164.002 30.9593 162.346 31.5245L165.327 36.0258H161.982L159.498 32.0063H157.543V36.0258H154.414V24.0676H159.482L159.481 24.0664ZM157.542 26.5077V29.6969H159.646C160.938 29.6969 161.866 29.2321 161.866 28.1029C161.866 26.9736 160.922 26.5089 159.597 26.5089H157.542V26.5077Z" fill="#FEFEFE"/>
<path d="M48.5668 54.1798V44.9497H55.2523V45.9628H49.8064V49.0007H54.4207V50.0138H49.8064V53.1667H55.4816V54.1798H48.5656H48.5668Z" fill="#FEFEFE"/>
<path d="M57.7979 44.9507H58.9867V52.2829C58.9867 52.9886 59.2426 53.2706 59.9197 53.2706C60.2396 53.2706 60.5075 53.2197 60.5715 53.2064V54.2195C60.5075 54.2449 60.1623 54.3345 59.6506 54.3345C58.5643 54.3345 57.7966 53.8346 57.7966 52.5528V44.9519L57.7979 44.9507Z" fill="#FEFEFE"/>
<path d="M69.1363 50.6031C69.1363 50.8464 69.123 51.0896 69.123 51.2179H63.2293V51.2313C63.2546 52.4743 64.3928 53.3203 66.0416 53.3203C66.9879 53.3203 68.1248 53.077 68.8539 52.7176V53.7814C68.1248 54.1143 66.9625 54.3321 65.9909 54.3321C63.6131 54.3321 61.9897 52.9729 61.9897 50.9734C61.9897 48.974 63.4984 47.6147 65.7097 47.6147C67.7422 47.6147 69.1351 48.8324 69.1351 50.6019L69.1363 50.6031ZM65.6976 48.5903C64.4061 48.5903 63.4224 49.3213 63.2558 50.3852H67.9474C67.9607 49.3213 67.053 48.5903 65.6976 48.5903Z" fill="#FEFEFE"/>
<path d="M74.9914 53.2951C75.9498 53.2951 76.8067 53.0264 77.3945 52.7311V53.8204C76.896 54.0637 75.8991 54.3336 74.9407 54.3336C72.6016 54.3336 70.9902 52.9744 70.9902 50.9749C70.9902 48.9754 72.6016 47.6162 74.9407 47.6162C76.1429 47.6162 76.9866 47.9491 77.3438 48.1161V49.2187C76.6788 48.8859 75.951 48.6547 74.9914 48.6547C73.3427 48.6547 72.2045 49.6036 72.2045 50.9749C72.2045 52.3462 73.3427 53.2951 74.9914 53.2951Z" fill="#FEFEFE"/>
<path d="M80.2334 47.7699V45.8467H81.409V47.7699H83.8V48.7188H81.409V52.0521C81.409 52.9744 81.9075 53.283 82.5846 53.283C83.0577 53.283 83.6069 53.168 84.0547 53.001V54.0395C83.7228 54.1932 83.0964 54.3348 82.3806 54.3348C81.3197 54.3348 80.2201 53.8604 80.2201 52.4249V48.72H78.9165V47.7711H80.2334V47.7699Z" fill="#FEFEFE"/>
<path d="M85.794 47.7699H86.9189V48.6801C86.9322 48.9234 86.8803 49.1158 86.8935 49.1546H86.9189C87.3413 48.2444 88.1717 47.6162 89.3099 47.6162C89.5272 47.6162 89.7191 47.6416 89.7577 47.6549V48.7697C89.7191 48.7564 89.5658 48.7309 89.3739 48.7309C87.8012 48.7309 86.9841 50.1277 86.9841 51.384V54.1787H85.7952V47.7687L85.794 47.7699Z" fill="#FEFEFE"/>
<path d="M92.4167 45.1943C92.8766 45.1943 93.1965 45.4897 93.1965 45.9121C93.1965 46.3345 92.8766 46.6165 92.4167 46.6165C91.9569 46.6165 91.637 46.3212 91.637 45.9121C91.637 45.503 91.9569 45.1943 92.4167 45.1943ZM93.0178 47.7699V54.1799H91.8289V47.7699H93.0178Z" fill="#FEFEFE"/>
<path d="M99.4607 53.2951C100.419 53.2951 101.276 53.0264 101.864 52.7311V53.8204C101.365 54.0637 100.368 54.3336 99.4101 54.3336C97.0709 54.3336 95.4596 52.9744 95.4596 50.9749C95.4596 48.9754 97.0709 47.6162 99.4101 47.6162C100.612 47.6162 101.456 47.9491 101.813 48.1161V49.2187C101.148 48.8859 100.42 48.6547 99.4607 48.6547C97.812 48.6547 96.6738 49.6036 96.6738 50.9749C96.6738 52.3462 97.812 53.2951 99.4607 53.2951Z" fill="#FEFEFE"/>
<path d="M104.063 48.0907C104.74 47.7832 105.622 47.6162 106.607 47.6162C108.755 47.6162 109.867 48.4622 109.867 50.0902V54.1799H108.756C108.756 53.9233 108.743 53.68 108.743 53.4101C108.729 53.1027 108.793 52.8969 108.793 52.8969H108.768C108.704 53.064 107.822 54.3324 105.994 54.3324C104.511 54.3324 103.591 53.6921 103.591 52.4612C103.591 50.82 105.42 50.0768 108.692 50.4738V50.1531C108.692 49.1533 107.963 48.6281 106.582 48.6281C105.624 48.6281 104.753 48.8072 104.064 49.1667V48.0895L104.063 48.0907ZM108.665 51.2957C105.942 50.9628 104.779 51.424 104.779 52.385C104.779 53.0131 105.252 53.398 106.172 53.398C107.603 53.398 108.664 52.3087 108.664 51.2957H108.665Z" fill="#FEFEFE"/>
<path d="M112.68 44.9507H113.869V52.2829C113.869 52.9886 114.124 53.2706 114.802 53.2706C115.121 53.2706 115.389 53.2197 115.453 53.2064V54.2195C115.389 54.2449 115.044 54.3345 114.532 54.3345C113.446 54.3345 112.678 53.8346 112.678 52.5528V44.9519L112.68 44.9507Z" fill="#FEFEFE"/>
<path d="M126.78 54.3334C123.341 54.3334 120.989 52.3981 120.989 49.5646C120.989 46.7312 123.366 44.7959 126.83 44.7959C128.454 44.7959 129.515 45.1675 130.155 45.4495V46.6029C129.336 46.2447 128.275 45.8973 126.805 45.8973C124.095 45.8973 122.242 47.3848 122.242 49.5634C122.242 51.7421 124.082 53.2429 126.78 53.2429C127.559 53.2429 128.531 53.1025 129.158 52.8967V50.0379H130.36V53.6266C129.477 54.049 128.021 54.331 126.78 54.331V54.3334Z" fill="#FEFEFE"/>
<path d="M132.737 47.7699H133.862V48.6801C133.876 48.9234 133.824 49.1158 133.837 49.1546H133.862C134.285 48.2444 135.115 47.6162 136.253 47.6162C136.471 47.6162 136.663 47.6416 136.701 47.6549V48.7697C136.663 48.7564 136.509 48.7309 136.317 48.7309C134.745 48.7309 133.928 50.1277 133.928 51.384V54.1787H132.739V47.7687L132.737 47.7699Z" fill="#FEFEFE"/>
<path d="M145.931 50.9749C145.931 52.9102 144.282 54.3336 142.019 54.3336C139.756 54.3336 138.121 52.9102 138.121 50.9749C138.121 49.0396 139.769 47.6162 142.019 47.6162C144.269 47.6162 145.931 49.0396 145.931 50.9749ZM144.767 50.9749C144.767 49.6036 143.617 48.6293 142.019 48.6293C140.421 48.6293 139.283 49.6036 139.283 50.9749C139.283 52.3462 140.433 53.3206 142.019 53.3206C143.605 53.3206 144.767 52.3462 144.767 50.9749Z" fill="#FEFEFE"/>
<path d="M154.88 54.1797H153.741L153.728 53.2696C153.728 53.0384 153.792 52.8593 153.792 52.7818H153.767C153.435 53.4995 152.361 54.3322 150.84 54.3322C148.922 54.3322 148.206 53.3966 148.206 51.7942V47.7686H149.395V51.5497C149.395 52.4465 149.574 53.255 150.98 53.255C152.539 53.255 153.69 52.242 153.69 50.9215V47.7686H154.878V54.1785L154.88 54.1797Z" fill="#FEFEFE"/>
<path d="M158.037 47.7699H159.149L159.174 48.4489C159.174 48.7309 159.123 48.9234 159.123 48.9234H159.162C159.635 48.1415 160.76 47.6162 161.936 47.6162C164.046 47.6162 165.489 48.9754 165.489 50.9749C165.489 52.9744 164.044 54.3336 161.948 54.3336C160.81 54.3336 159.698 53.8204 159.212 53.0652H159.173C159.173 53.0652 159.224 53.2576 159.224 53.5905V57H158.035V47.7699H158.037ZM164.327 50.9749C164.327 49.5782 163.304 48.6293 161.796 48.6293C160.287 48.6293 159.226 49.5782 159.226 50.9749C159.226 52.3716 160.274 53.3206 161.796 53.3206C163.318 53.3206 164.327 52.3716 164.327 50.9749Z" fill="#FEFEFE"/>
</svg>
