<svg width="32" height="32" viewBox="0 0 32 32" fill="none" xmlns="http://www.w3.org/2000/svg">
<path d="M19 31H8.2M8.2 31C5.67976 31 4.41965 31 3.45704 30.5095C2.61031 30.0781 1.9219 29.3897 1.49047 28.543C1 27.5804 1 26.3202 1 23.8M8.2 31H8.8C11.3202 31 12.5804 31 13.543 30.5095C14.3897 30.0781 15.0781 29.3897 15.5095 28.543C16 27.5804 16 26.3202 16 23.8V23.2C16 20.6798 16 19.4196 15.5095 18.457C15.0781 17.6103 14.3897 16.9219 13.543 16.4905C12.5804 16 11.3202 16 8.8 16H8.2C5.67976 16 4.41965 16 3.45704 16.4905C2.61031 16.9219 1.9219 17.6103 1.49047 18.457C1 19.4196 1 20.6798 1 23.2V23.8M1 23.8V13M13 1H19M31 13V19M25 31C26.395 31 27.0924 31 27.6647 30.8467C29.2176 30.4306 30.4306 29.2176 30.8467 27.6647C31 27.0924 31 26.395 31 25M31 7C31 5.60504 31 4.90756 30.8467 4.33531C30.4306 2.7824 29.2176 1.56944 27.6647 1.15333C27.0924 1 26.395 1 25 1M7 1C5.60504 1 4.90756 1 4.33531 1.15333C2.7824 1.56944 1.56944 2.7824 1.15333 4.33531C1 4.90756 1 5.60504 1 7" stroke="#B7D6E2" stroke-width="2" stroke-linecap="round" stroke-linejoin="round"/>
</svg>
