<svg width="32" height="31" viewBox="0 0 32 31" fill="none" xmlns="http://www.w3.org/2000/svg">
<path d="M7 7L13.75 13.75M7 7H2.5L1 2.5L2.5 1L7 2.5V7ZM26.8885 2.11152L22.9471 6.05294C22.353 6.64697 22.056 6.94398 21.9447 7.28647C21.8468 7.58774 21.8468 7.91226 21.9447 8.21353C22.056 8.55602 22.353 8.85303 22.9471 9.44705L23.3029 9.80294C23.897 10.397 24.194 10.694 24.5365 10.8053C24.8377 10.9032 25.1623 10.9032 25.4635 10.8053C25.806 10.694 26.103 10.397 26.6971 9.80294L30.3839 6.11608C30.781 7.08233 31 8.14059 31 9.25C31 13.8063 27.3063 17.5 22.75 17.5C22.2007 17.5 21.6639 17.4463 21.1446 17.3439C20.4154 17.2001 20.0508 17.1282 19.8298 17.1502C19.5948 17.1736 19.479 17.2089 19.2708 17.3203C19.0749 17.4251 18.8785 17.6215 18.4855 18.0145L7.75 28.75C6.50736 29.9926 4.49264 29.9926 3.25 28.75C2.00736 27.5073 2.00736 25.4926 3.25 24.25L13.9855 13.5145C14.3785 13.1215 14.5749 12.9251 14.6797 12.7292C14.7911 12.521 14.8264 12.4052 14.8498 12.1702C14.8718 11.9492 14.7999 11.5846 14.6561 10.8554C14.5537 10.3361 14.5 9.79931 14.5 9.25C14.5 4.69365 18.1937 1 22.75 1C24.2583 1 25.672 1.40473 26.8885 2.11152ZM16.0001 20.4999L24.25 28.7498C25.4926 29.9925 27.5073 29.9925 28.75 28.7498C29.9926 27.5072 29.9926 25.4925 28.75 24.2498L21.963 17.4629C21.4825 17.4175 21.0141 17.3308 20.5612 17.2065C19.9776 17.0463 19.3374 17.1626 18.9095 17.5905L16.0001 20.4999Z" stroke="#B7D6E2" stroke-width="2" stroke-linecap="round" stroke-linejoin="round"/>
</svg>
